:SAMPLES-PER-SECOND 30
:FULLY-SPECIFIED
:DEGREES
538
root  53.9875 34.8544 66.2317 0.913849 41.3022 -4.65964
LeftUpLeg  -25.9593 10.1906 2.21766
LeftLeg  36.8314 8.95982 5.8034
LeftFoot  -2.90991 -0.0129491 -0.509827
LeftToes  -7.13163 1.61378e-006 8.80029e-008
Spine  3.91488 3.21247 0.767842
Spine1  7.56566 6.88249 0.966479
RightShoulder  0.0772588 4.26039 5.2
RightArm  -26.9424 5.41317 56.937
RightForeArm  25.2328 46.9268 10.8923
RightHand  0.290471 -6.84553 -4.4794
LeftShoulder1  0.00480456 0.704959 -8.64748
LeftArm  -25.3666 16.3759 -74.1604
LeftForeArm  28.9546 -18.6679 -3.40788
LeftHand  0.101377 3.07222 3.40146
HEad  -9.94569 -22.394 -2.65505
RightUpLeg  -7.71341 -13.7438 6.31851
RightLeg  10.1954 4.79832 0.548741
RightFoot  -0.899767 -0.00348758 -0.0666595
RightToes  -20.8987 -0.0863274 -0.184009
539
root  54.2289 34.8513 66.5789 1.60359 40.3406 -4.46532
LeftUpLeg  -26.6072 11.0276 0.424517
LeftLeg  26.7416 9.01479 3.81299
LeftFoot  -0.0680229 1.39634e-005 0.023512
LeftToes  -7.5208 1.61378e-006 8.80029e-008
Spine  3.8958 3.26974 0.674326
Spine1  7.50327 7.06639 0.727133
RightShoulder  0.077806 4.18882 4.7104
RightArm  -27.4432 7.28835 55.4164
RightForeArm  25.5417 50.1425 12.2235
RightHand  0.323069 -6.8072 -5.05319
LeftShoulder1  0.00425817 0.63016 -8.49409
LeftArm  -24.9235 16.1402 -74.0838
LeftForeArm  29.176 -18.498 -3.37443
LeftHand  0.10169 3.08186 3.39829
HEad  -10.2527 -21.9531 -2.42652
RightUpLeg  -7.30524 -13.3301 6.25318
RightLeg  9.78718 5.29164 0.566835
RightFoot  -1.33363 -0.00571611 -0.11364
RightToes  -21.5424 -0.0894054 -0.188102
540
root  54.482 34.8286 66.9858 2.11009 39.4484 -4.79071
LeftUpLeg  -27.1632 12.886 -1.16367
LeftLeg  16.4936 8.32235 1.88336
LeftFoot  4.86441 -0.0325043 0.765227
LeftToes  -12.0388 1.61378e-006 8.80029e-008
Spine  3.75772 3.27715 0.643036
Spine1  7.22695 7.11613 0.647294
RightShoulder  0.0782526 4.01492 4.28943
RightArm  -27.7938 9.06839 53.9242
RightForeArm  26.3959 53.2101 13.6804
RightHand  0.373567 -6.94242 -5.77721
LeftShoulder1  0.00398086 0.550636 -8.17763
LeftArm  -24.7946 16.0157 -73.9052
LeftForeArm  29.8202 -18.277 -3.33082
LeftHand  0.1022 3.08786 3.39547
HEad  -10.4156 -21.6057 -2.08352
RightUpLeg  -6.8364 -12.7438 6.61517
RightLeg  9.11217 5.58893 0.532155
RightFoot  -1.76012 -0.00831083 -0.163541
RightToes  -21.8931 -0.0924701 -0.191867
541
root  54.7634 34.7657 67.4457 2.24643 38.4146 -5.79802
LeftUpLeg  -28.0049 16.0888 -2.60572
LeftLeg  7.93044 7.28133 0.538547
LeftFoot  7.65635 -0.0673025 1.00577
LeftToes  -19.1856 1.61378e-006 8.80029e-008
Spine  3.516 3.29095 0.723815
Spine1  6.76674 7.1497 0.809877
RightShoulder  0.0781795 3.8514 3.92101
RightArm  -28.2874 10.722 52.4215
RightForeArm  27.5722 55.8579 15.1264
RightHand  0.379966 -7.0719 -5.76787
LeftShoulder1  0.00399992 0.571726 -7.79497
LeftArm  -24.9784 16.2339 -73.6551
LeftForeArm  30.5884 -18.5077 -3.37554
LeftHand  0.105649 2.97389 3.57145
HEad  -10.2812 -21.2514 -1.8437
RightUpLeg  -6.4168 -12.2886 7.48771
RightLeg  8.71954 6.16888 0.54456
RightFoot  -2.4646 -0.0137146 -0.260082
RightToes  -22.3048 -0.0946763 -0.194438
542
root  55.0471 34.6962 67.9274 2.43513 37.3193 -6.7325
LeftUpLeg  -28.8804 18.4697 -3.53526
LeftLeg  2.01004 6.85242 -0.199745
LeftFoot  8.09796 -0.0697599 0.985473
LeftToes  -19.8914 1.61378e-006 8.80029e-008
Spine  3.24937 3.27831 0.754806
Spine1  6.24866 7.12351 0.882501
RightShoulder  0.0772375 3.66304 3.69978
RightArm  -28.6941 12.5499 50.8595
RightForeArm  28.0845 57.9395 16.418
RightHand  0.371316 -7.1068 -5.59895
LeftShoulder1  0.00434267 0.595937 -7.56386
LeftArm  -25.5831 16.4182 -73.0572
LeftForeArm  31.1573 -18.4018 -3.35444
LeftHand  0.106983 2.87789 3.60458
HEad  -10.1711 -20.9315 -1.74324
RightUpLeg  -6.29941 -11.8163 8.31098
RightLeg  9.10971 6.737 0.640577
RightFoot  -3.49931 -0.0240069 -0.408429
RightToes  -22.4363 -0.0954653 -0.196116
543
root  55.3368 34.6044 68.4563 2.29138 36.1908 -7.5493
LeftUpLeg  -29.6532 18.5993 -2.74148
LeftLeg  1.80693 8.82679 -0.288
LeftFoot  6.70867 -0.0613953 1.04746
LeftToes  -17.5906 1.61378e-006 8.80029e-008
Spine  3.16037 3.3265 0.714179
Spine1  6.06871 7.22266 0.808148
RightShoulder  0.0744629 3.67363 3.26769
RightArm  -29.5618 14.1481 49.3383
RightForeArm  29.0608 59.878 17.7731
RightHand  0.397674 -7.37113 -5.79263
LeftShoulder1  0.00503639 0.533863 -7.32839
LeftArm  -26.011 16.2664 -72.1693
LeftForeArm  31.2978 -18.3 -3.33443
LeftHand  0.109509 2.95529 3.86212
HEad  -10.4045 -20.7722 -1.613
RightUpLeg  -5.82151 -11.4903 8.96272
RightLeg  9.84376 7.44729 0.803785
RightFoot  -4.77416 -0.0416094 -0.620667
RightToes  -22.4979 -0.0952028 -0.196498
544
root  55.6762 34.5298 69.0399 2.35556 35.2817 -7.70587
LeftUpLeg  -29.7318 17.0985 -1.31441
LeftLeg  4.19749 12.6048 0.11207
LeftFoot  8.98679 -0.159072 2.02397
LeftToes  -17.0733 1.61378e-006 8.80029e-008
Spine  3.10994 3.3358 0.436704
Spine1  5.94526 7.22732 0.301971
RightShoulder  0.0685975 3.65829 2.76991
RightArm  -30.6161 15.5501 47.9725
RightForeArm  30.558 61.7499 19.2529
RightHand  0.386058 -7.25184 -5.71138
LeftShoulder1  0.00610838 0.386747 -7.21221
LeftArm  -26.5839 15.738 -70.79
LeftForeArm  31.6827 -17.2908 -3.13802
LeftHand  0.111403 2.88753 4.03823
HEad  -10.7484 -20.9278 -1.39497
RightUpLeg  -5.0901 -11.5002 8.97147
RightLeg  10.7437 8.23705 1.01901
RightFoot  -6.19451 -0.0687901 -0.893801
RightToes  -22.7096 -0.0944301 -0.195734
